<svg width="34" height="34" viewBox="0 0 34 34" fill="none" xmlns="http://www.w3.org/2000/svg">
<path d="M28.6875 22.4825V13.175L29.1762 12.9519C29.3617 12.8674 29.519 12.7313 29.6293 12.5598C29.7396 12.3884 29.7982 12.1889 29.7982 11.985C29.7982 11.7812 29.7396 11.5816 29.6293 11.4102C29.519 11.2387 29.3617 11.1026 29.1762 11.0181L16.9362 5.40813C16.7964 5.3434 16.6441 5.30988 16.49 5.30988C16.3359 5.30988 16.1836 5.3434 16.0437 5.40813L3.80374 11.0181C3.61824 11.1026 3.46097 11.2387 3.35069 11.4102C3.2404 11.5816 3.18176 11.7812 3.18176 11.985C3.18176 12.1889 3.2404 12.3884 3.35069 12.5598C3.46097 12.7313 3.61824 12.8674 3.80374 12.9519L8.25562 14.9919L7.43749 21.5475C7.41243 21.7594 7.45176 21.974 7.55035 22.1632C7.64895 22.3525 7.80224 22.5076 7.99027 22.6085C8.1783 22.7094 8.39235 22.7514 8.60455 22.7289C8.81675 22.7064 9.01727 22.6206 9.17999 22.4825C9.29333 22.3692 9.42083 22.2523 9.56249 22.1319C9.82793 21.8008 10.1643 21.5334 10.5468 21.3495C10.9292 21.1656 11.3481 21.0699 11.7725 21.0694C13.2401 21.0113 14.6764 21.5039 15.7994 22.4506C15.9918 22.6152 16.2367 22.7057 16.49 22.7057C16.7432 22.7057 16.9882 22.6152 17.1806 22.4506C18.1195 21.6369 19.2984 21.152 20.5381 21.0694C21.0864 21.0039 21.6425 21.0722 22.1587 21.2683C22.6749 21.4644 23.136 21.7826 23.5025 22.1956L23.7681 22.4506C23.9606 22.6152 24.2055 22.7057 24.4587 22.7056C24.6331 22.7048 24.8046 22.661 24.9581 22.5781C25.1464 22.4771 25.2998 22.3217 25.3983 22.1321C25.4969 21.9426 25.536 21.7277 25.5106 21.5156L24.7031 14.9813L26.5625 14.1525V22.4825C25.945 22.6858 25.4072 23.0786 25.0257 23.6051C24.6442 24.1315 24.4384 24.7649 24.4375 25.415V28.6875C24.4375 28.9693 24.5494 29.2395 24.7487 29.4388C24.9479 29.6381 25.2182 29.75 25.5 29.75H29.75C30.0318 29.75 30.302 29.6381 30.5013 29.4388C30.7006 29.2395 30.8125 28.9693 30.8125 28.6875V25.415C30.8116 24.7649 30.6058 24.1315 30.2243 23.6051C29.8428 23.0786 29.305 22.6858 28.6875 22.4825ZM23.0881 19.3906C22.2324 19.0473 21.3081 18.909 20.3894 18.9869C18.9819 19.0692 17.6248 19.54 16.4687 20.3469C15.048 19.3714 13.3446 18.8932 11.6237 18.9869C11.0208 19.0166 10.426 19.1385 9.85999 19.3481L10.285 15.9375L16.0437 18.5831C16.1836 18.6479 16.3359 18.6814 16.49 18.6814C16.6441 18.6814 16.7964 18.6479 16.9362 18.5831L22.6525 15.9375L23.0881 19.3906ZM16.49 16.4263L6.79999 11.985L16.49 7.54376L26.18 11.985L16.49 16.4263ZM28.6875 27.625H26.5625V25.415C26.5625 25.2866 26.5878 25.1595 26.6369 25.0409C26.686 24.9223 26.758 24.8146 26.8488 24.7238C26.9396 24.633 27.0473 24.561 27.1659 24.5119C27.2845 24.4628 27.4116 24.4375 27.54 24.4375H27.71C27.9692 24.4375 28.2179 24.5405 28.4012 24.7238C28.5845 24.9071 28.6875 25.1558 28.6875 25.415V27.625Z" fill="currentColor"/>
</svg>
