<svg width="30" height="30" viewBox="0 0 30 30" fill="none" xmlns="http://www.w3.org/2000/svg">
<path d="M15 12.4593C16.1407 12.4612 17.2563 12.1246 18.2057 11.4922C19.1551 10.8598 19.8956 9.96 20.3334 8.90663C20.7712 7.85327 20.8867 6.6937 20.6653 5.57466C20.4439 4.45562 19.8955 3.42741 19.0896 2.62013C18.2836 1.81286 17.2563 1.2628 16.1376 1.03958C15.0189 0.816347 13.8592 0.929977 12.8051 1.36609C11.751 1.8022 10.85 2.54118 10.216 3.48954C9.5821 4.43789 9.24371 5.55299 9.24371 6.69372C9.24371 8.22124 9.84987 9.68633 10.9291 10.7673C12.0083 11.8483 13.4724 12.4569 15 12.4593ZM15 2.81247C15.7702 2.81062 16.5238 3.03746 17.165 3.46425C17.8062 3.89104 18.3064 4.49858 18.602 5.20988C18.8976 5.92118 18.9755 6.70423 18.8256 7.45981C18.6758 8.21539 18.3051 8.90949 17.7604 9.45417C17.2157 9.99885 16.5216 10.3696 15.7661 10.5194C15.0105 10.6692 14.2274 10.5914 13.5161 10.2958C12.8048 10.0001 12.1973 9.5 11.7705 8.85876C11.3437 8.21751 11.1169 7.46401 11.1187 6.69372C11.1212 5.66511 11.5309 4.67934 12.2582 3.952C12.9856 3.22466 13.9713 2.81495 15 2.81247ZM25.6687 25.1343C24.5437 28.0312 19.425 29.0625 15 29.0625C10.575 29.0625 5.45621 28.0312 4.33121 25.1343C3.73121 23.5875 4.26558 21.2906 5.72808 19.1437C6.74541 17.6081 8.12109 16.3431 9.73642 15.4579C11.3518 14.5726 13.1582 14.0937 15 14.0625C17.1736 14.1101 19.289 14.7742 21.0998 15.9775C22.9106 17.1808 24.3422 18.8738 25.2281 20.8593C25.2913 20.9731 25.3302 21.0987 25.3423 21.2283C25.3543 21.3578 25.3392 21.4885 25.298 21.6119C25.2568 21.7354 25.1904 21.8489 25.1029 21.9452C25.0154 22.0416 24.9089 22.1186 24.79 22.1715C24.6711 22.2245 24.5425 22.252 24.4124 22.2525C24.2822 22.253 24.1534 22.2264 24.0342 22.1744C23.9149 22.1224 23.8077 22.0462 23.7195 21.9505C23.6313 21.8548 23.564 21.7418 23.5218 21.6187C22.7708 19.9725 21.5752 18.5686 20.0697 17.5649C18.5642 16.5612 16.8084 15.9976 15 15.9375C13.4642 15.9686 11.9591 16.3732 10.6148 17.1164C9.27051 17.8597 8.12741 18.9191 7.28433 20.2031C6.02808 22.0312 5.77496 23.6906 6.07496 24.4593C6.69371 26.0437 10.4437 27.1875 15 27.1875C19.5562 27.1875 23.3062 26.0437 23.925 24.4593C24.0265 24.2456 24.2051 24.0782 24.4249 23.9907C24.6447 23.9032 24.8895 23.902 25.1102 23.9874C25.3308 24.0728 25.511 24.2385 25.6146 24.4512C25.7182 24.6639 25.7375 24.908 25.6687 25.1343Z" fill="currentColor"/>
</svg>
