<svg width="30" height="30" viewBox="0 0 30 30" fill="none" xmlns="http://www.w3.org/2000/svg">
<path d="M28.1006 6.34686C28.0638 6.19122 27.9878 6.04757 27.8799 5.92959C27.7719 5.81161 27.6355 5.72321 27.4837 5.6728L25.1166 4.88343L24.3262 2.51624C24.2757 2.36477 24.1872 2.22873 24.0693 2.12102C23.9514 2.01331 23.808 1.93751 23.6526 1.90079C23.4972 1.86407 23.3349 1.86766 23.1813 1.91122C23.0277 1.95478 22.8877 2.03686 22.7747 2.14968L19.7625 5.16186C17.1797 3.79153 14.1908 3.39353 11.3394 4.04021C8.48797 4.6869 5.96327 6.33534 4.22429 8.68583C2.48531 11.0363 1.64753 13.9328 1.86325 16.8487C2.07897 19.7646 3.33388 22.5062 5.39982 24.5752C7.46576 26.6442 10.2056 27.9032 13.1211 28.1232C16.0367 28.3432 18.9344 27.5097 21.2874 25.7742C23.6405 24.0387 25.2927 21.5165 25.9436 18.666C26.5945 15.8155 26.2009 12.8261 24.8344 10.2412L27.8503 7.2253C27.9635 7.11237 28.0459 6.97238 28.0897 6.81863C28.1335 6.66488 28.1373 6.50248 28.1006 6.34686ZM14.0625 26.25C12.4979 26.2561 10.9524 25.9062 9.54306 25.2266C8.13372 24.5471 6.89748 23.5558 5.92796 22.3278C4.95844 21.0997 4.28106 19.6672 3.94711 18.1386C3.61316 16.6101 3.63141 15.0256 4.00046 13.5051C4.36952 11.9846 5.07971 10.5681 6.07725 9.36269C7.07479 8.15732 8.33353 7.19473 9.75814 6.54782C11.1828 5.90091 12.7359 5.58664 14.2999 5.62881C15.864 5.67099 17.3979 6.0685 18.7856 6.79124C18.7912 6.81374 18.7912 6.83624 18.7987 6.85874L19.5487 9.12186L17.985 10.6875C16.6511 9.6893 14.9887 9.23347 13.3323 9.41175C11.6758 9.59003 10.1484 10.3892 9.05754 11.6483C7.96665 12.9075 7.39325 14.5332 7.45278 16.1981C7.51231 17.863 8.20034 19.4436 9.37837 20.6216C10.5564 21.7996 12.137 22.4877 13.8019 22.5472C15.4668 22.6067 17.0925 22.0333 18.3516 20.9424C19.6108 19.8515 20.41 18.3242 20.5882 16.6677C20.7665 15.0113 20.3107 13.3488 19.3125 12.015L20.88 10.4475L23.1431 11.1975C23.1628 11.2041 23.1844 11.2022 23.205 11.2078C24.0277 12.7768 24.4306 14.5318 24.3746 16.3025C24.3186 18.0731 23.8057 19.7992 22.8855 21.3131C21.9654 22.827 20.6694 24.0771 19.1234 24.9422C17.5775 25.8072 15.834 26.2578 14.0625 26.25ZM18.75 15.9375C18.7531 16.9854 18.4061 18.0042 17.764 18.8323C17.1219 19.6605 16.2216 20.2503 15.206 20.5083C14.1904 20.7663 13.1177 20.6776 12.1582 20.2563C11.1988 19.835 10.4076 19.1053 9.91021 18.183C9.41286 17.2607 9.23788 16.1986 9.41306 15.1655C9.58824 14.1324 10.1035 13.1874 10.8771 12.4806C11.6507 11.7737 12.6383 11.3456 13.683 11.2641C14.7277 11.1827 15.7696 11.4526 16.6434 12.0309L14.5416 14.1328C14.3857 14.0883 14.2246 14.0647 14.0625 14.0625C13.6917 14.0625 13.3291 14.1725 13.0208 14.3785C12.7125 14.5845 12.4721 14.8773 12.3302 15.22C12.1883 15.5626 12.1512 15.9396 12.2235 16.3033C12.2959 16.667 12.4744 17.0011 12.7367 17.2633C12.9989 17.5255 13.333 17.7041 13.6967 17.7765C14.0604 17.8488 14.4374 17.8117 14.78 17.6698C15.1226 17.5278 15.4155 17.2875 15.6215 16.9792C15.8275 16.6708 15.9375 16.3083 15.9375 15.9375C15.9353 15.7754 15.9116 15.6143 15.8672 15.4584L17.9691 13.3566C18.4781 14.1211 18.7498 15.019 18.75 15.9375ZM23.1834 9.23999L21.3666 8.63343L20.7609 6.81561L23.0269 4.5478L23.4862 5.92124C23.5322 6.05936 23.6096 6.18489 23.7124 6.2879C23.8153 6.3909 23.9407 6.46854 24.0787 6.51468L25.4512 6.97218L23.1834 9.23999Z" fill="currentColor"/>
</svg>
