<svg width="32" height="32" viewBox="0 0 32 32" fill="none" xmlns="http://www.w3.org/2000/svg">
<path d="M30 16C30.0001 18.7371 29.1363 21.4044 27.5317 23.6219C25.9271 25.8393 23.6635 27.4937 21.0635 28.3492C18.4636 29.2048 15.6599 29.2179 13.0521 28.3867C10.4442 27.5555 8.16527 25.9223 6.53998 23.72L8.14998 22.53C9.61881 24.5249 11.718 25.9655 14.1077 26.6187C16.4973 27.2719 19.0375 27.0993 21.3168 26.1289C23.5961 25.1585 25.4812 23.4471 26.6666 21.2718C27.8521 19.0966 28.2686 16.5849 27.8487 14.1434C27.4288 11.702 26.1971 9.47375 24.353 7.81956C22.5089 6.16538 20.1604 5.1821 17.6879 5.02897C15.2153 4.87583 12.7634 5.5618 10.7293 6.9758C8.6952 8.38979 7.19794 10.449 6.47998 12.82L7.47998 12.17L8.59998 13.83L5.59998 15.83C5.42322 15.9492 5.21299 16.0087 4.99998 16C4.83618 16.0002 4.67482 15.9602 4.5301 15.8835C4.38537 15.8068 4.26171 15.6957 4.16998 15.56L2.16998 12.56L3.82998 11.44L4.50998 12.44C5.37761 9.43419 7.30009 6.8421 9.92465 5.13936C12.5492 3.43663 15.6998 2.73748 18.7982 3.17022C21.8967 3.60296 24.7351 5.13855 26.7927 7.4952C28.8504 9.85186 29.9891 12.8715 30 16ZM16 8.99999V16C15.9992 16.1316 16.0244 16.2621 16.0742 16.3839C16.124 16.5057 16.1973 16.6166 16.29 16.71L19.29 19.71L20.71 18.29L18 15.59V8.99999H16Z" fill="currentColor"/>
</svg>
