<svg width="30" height="30" viewBox="0 0 30 30" fill="none" xmlns="http://www.w3.org/2000/svg">
<path d="M29.82 14.5802L15.42 0.180165C15.3643 0.123927 15.2979 0.0792909 15.2248 0.0488297C15.1517 0.0183685 15.0732 0.00268555 14.994 0.00268555C14.9148 0.00268555 14.8364 0.0183685 14.7633 0.0488297C14.6902 0.0792909 14.6238 0.123927 14.568 0.180165L0.16803 14.5802L1.02003 15.4322L3.60003 12.8162V28.5002C3.60003 28.898 3.75806 29.2795 4.03937 29.5608C4.32067 29.8421 4.7022 30.0002 5.10003 30.0002H12V22.5002C12 22.2615 12.0949 22.0326 12.2636 21.8638C12.4324 21.695 12.6613 21.6002 12.9 21.6002H17.1C17.3387 21.6002 17.5676 21.695 17.7364 21.8638C17.9052 22.0326 18 22.2615 18 22.5002V30.0002H24.9C25.2979 30.0002 25.6794 29.8421 25.9607 29.5608C26.242 29.2795 26.4 28.898 26.4 28.5002V12.9002L28.98 15.4802L29.82 14.5802Z" fill="currentColor"/>
</svg>
