<svg width="30" height="30" viewBox="0 0 30 30" fill="none" xmlns="http://www.w3.org/2000/svg">
<path d="M26.75 18.25H24.25V17C24.25 14.9325 22.5675 13.25 20.5 13.25H16.75V10.75H19.25C19.5815 10.75 19.8995 10.6183 20.1339 10.3839C20.3683 10.1495 20.5 9.83152 20.5 9.5V3.25C20.5 2.91848 20.3683 2.60054 20.1339 2.36612C19.8995 2.1317 19.5815 2 19.25 2H11.75C11.4185 2 11.1005 2.1317 10.8661 2.36612C10.6317 2.60054 10.5 2.91848 10.5 3.25V9.5C10.5 9.83152 10.6317 10.1495 10.8661 10.3839C11.1005 10.6183 11.4185 10.75 11.75 10.75H14.25V13.25H10.5C8.4325 13.25 6.75 14.9325 6.75 17V18.25H4.25C3.91848 18.25 3.60054 18.3817 3.36612 18.6161C3.1317 18.8505 3 19.1685 3 19.5V25.75C3 26.0815 3.1317 26.3995 3.36612 26.6339C3.60054 26.8683 3.91848 27 4.25 27H11.75C12.0815 27 12.3995 26.8683 12.6339 26.6339C12.8683 26.3995 13 26.0815 13 25.75V19.5C13 19.1685 12.8683 18.8505 12.6339 18.6161C12.3995 18.3817 12.0815 18.25 11.75 18.25H9.25V17C9.25 16.3112 9.81125 15.75 10.5 15.75H20.5C21.1887 15.75 21.75 16.3112 21.75 17V18.25H19.25C18.9185 18.25 18.6005 18.3817 18.3661 18.6161C18.1317 18.8505 18 19.1685 18 19.5V25.75C18 26.0815 18.1317 26.3995 18.3661 26.6339C18.6005 26.8683 18.9185 27 19.25 27H26.75C27.0815 27 27.3995 26.8683 27.6339 26.6339C27.8683 26.3995 28 26.0815 28 25.75V19.5C28 19.1685 27.8683 18.8505 27.6339 18.6161C27.3995 18.3817 27.0815 18.25 26.75 18.25Z" fill="currentColor"/>
</svg>
