<svg width="18" height="18" viewBox="0 0 18 18" fill="none" xmlns="http://www.w3.org/2000/svg">
<g clip-path="url(#clip0_100_10)">
<path d="M16.1252 12.9628C16.8013 11.7515 17.1563 10.3873 17.1563 9C17.1563 7.61274 16.8013 6.24854 16.1252 5.03719C16.1217 4.9978 16.1096 4.95964 16.0899 4.92536C16.0702 4.89107 16.0433 4.86148 16.011 4.83863C15.0992 3.30153 13.7077 2.10649 12.0505 1.43722C10.3933 0.767957 8.56222 0.661525 6.83867 1.13429C5.11512 1.60706 3.59457 2.63284 2.51078 4.05395C1.42699 5.47505 0.839966 7.21279 0.839966 9C0.839966 10.7872 1.42699 12.525 2.51078 13.9461C3.59457 15.3672 5.11512 16.3929 6.83867 16.8657C8.56222 17.3385 10.3933 17.232 12.0505 16.5628C13.7077 15.8935 15.0992 14.6985 16.011 13.1614C16.0433 13.1385 16.0702 13.1089 16.0899 13.0746C16.1096 13.0404 16.1217 13.0022 16.1252 12.9628ZM4.32564 13.2188H5.61348C5.88313 14.2801 6.37606 15.2717 7.05939 16.1274C5.85755 15.479 4.89834 14.4585 4.32564 13.2188ZM1.41329 9.28125H2.81786C2.84351 10.4351 3.06451 11.5763 3.47148 12.6563H2.34648C1.77486 11.6201 1.45518 10.4639 1.41329 9.28125ZM2.34704 5.34375H3.47204C3.06507 6.42375 2.84407 7.56491 2.81842 8.71875H1.41329C1.45535 7.53606 1.77523 6.37988 2.34704 5.34375ZM13.6744 4.78125H12.3865C12.1169 3.7199 11.624 2.72828 10.9406 1.87256C12.1425 2.52096 13.1017 3.54155 13.6744 4.78125ZM16.5867 8.71875H15.1822C15.1565 7.56491 14.9355 6.42375 14.5285 5.34375H15.6535C16.2252 6.37993 16.5448 7.53611 16.5867 8.71875ZM14.6197 8.71875H12.9341C12.922 7.5826 12.7874 6.45107 12.5328 5.34375H13.9281C14.3595 6.41806 14.5938 7.56134 14.6197 8.71875ZM8.71876 5.34375V8.71875H5.62839C5.64345 7.58115 5.78743 6.44892 6.05757 5.34375H8.71876ZM6.21283 4.78125C6.77533 2.92894 7.68995 1.63772 8.71876 1.43606V4.78125H6.21283ZM8.71876 9.28125V12.6563H6.05757C5.78743 11.5511 5.64345 10.4189 5.62839 9.28125H8.71876ZM8.71876 13.2188V16.5639C7.68995 16.3623 6.77561 15.0711 6.21283 13.2188H8.71876ZM9.28126 12.6563V9.28125H12.3716C12.3566 10.4189 12.2126 11.5511 11.9425 12.6563H9.28126ZM11.7872 13.2188C11.2247 15.0711 10.3098 16.3623 9.28126 16.5639V13.2188H11.7872ZM9.28126 8.71875V5.34375H11.9425C12.2126 6.44892 12.3566 7.58115 12.3716 8.71875H9.28126ZM9.28126 4.78125V1.43606C10.3098 1.63772 11.2241 2.92894 11.7872 4.78125H9.28126ZM7.05939 1.87256C6.37606 2.72828 5.88313 3.7199 5.61348 4.78125H4.32564C4.89834 3.54155 5.85755 2.52096 7.05939 1.87256ZM5.46695 5.34375C5.21242 6.45108 5.07796 7.58261 5.06589 8.71875H3.38036C3.40615 7.56135 3.64033 6.41808 4.07167 5.34375H5.46695ZM3.38036 9.28125H5.06589C5.07796 10.4174 5.21242 11.5489 5.46695 12.6563H4.07167C3.64033 11.5819 3.40615 10.4387 3.38036 9.28125ZM10.9406 16.1274C11.624 15.2717 12.1169 14.2801 12.3865 13.2188H13.6744C13.1017 14.4585 12.1425 15.479 10.9406 16.1274ZM12.5328 12.6563C12.7874 11.5489 12.922 10.4174 12.9341 9.28125H14.6197C14.5938 10.4387 14.3595 11.5819 13.9281 12.6563H12.5328ZM15.1822 9.28125H16.5867C16.5447 10.4639 16.2248 11.6201 15.653 12.6563H14.528C14.9351 11.5763 15.1563 10.4351 15.1822 9.28125ZM15.3104 4.78125H14.2937C13.8636 3.82055 13.2414 2.95799 12.4656 2.24663C13.6125 2.83792 14.5912 3.70986 15.3104 4.78125ZM5.53417 2.24663C4.75849 2.95808 4.13647 3.82062 3.70633 4.78125H2.68961C3.40872 3.70987 4.38729 2.83793 5.53417 2.24663ZM2.68961 13.2188H3.70633C4.13655 14.1794 4.75867 15.042 5.53445 15.7534C4.38747 15.1621 3.40879 14.2902 2.68961 13.2188ZM12.4656 15.7534C13.2414 15.042 13.8636 14.1795 14.2937 13.2188H15.3104C14.5912 14.2901 13.6125 15.1621 12.4656 15.7534Z" fill="#6F2222"/>
</g>
<defs>
<clipPath id="clip0_100_10">
<rect width="18" height="18" fill="white"/>
</clipPath>
</defs>
</svg>
